<?xml version="1.0" standalone="no"?>
<!DOCTYPE svg PUBLIC "-//W3C//DTD SVG 20010904//EN"
 "http://www.w3.org/TR/2001/REC-SVG-20010904/DTD/svg10.dtd">
<svg version="1.0" xmlns="http://www.w3.org/2000/svg"
 width="1601.000000pt" height="947.000000pt" viewBox="0 0 1601.000000 947.000000"
 preserveAspectRatio="xMidYMid meet">

<g transform="translate(0.000000,947.000000) scale(0.100000,-0.100000)"
fill="#000000" stroke="none">
<path d="M3908 9459 c-273 -11 -475 -43 -573 -92 -122 -61 -335 -257 -404
-371 -70 -117 -111 -288 -111 -463 0 -46 -2 -83 -4 -83 -3 0 -36 7 -74 15
-111 23 -729 41 -936 26 -450 -31 -700 -145 -805 -366 -51 -107 -56 -147 -56
-440 0 -269 0 -271 25 -319 37 -71 78 -90 205 -94 89 -2 104 0 140 20 66 38
86 93 97 256 15 240 31 350 57 390 24 38 294 56 747 49 313 -4 435 -12 520
-32 25 -6 58 -80 74 -164 7 -35 10 -1088 10 -3060 0 -3224 2 -3079 -49 -3179
-23 -45 -20 -44 -216 -63 -155 -15 -725 -15 -880 0 -199 19 -195 18 -215 65
-51 114 -72 407 -59 811 5 138 11 1020 15 1960 6 1780 1 2234 -29 2291 -47 90
-166 133 -278 100 -76 -22 -120 -53 -146 -106 -21 -41 -23 -58 -23 -211 l0
-167 -173 -1 c-252 -1 -357 -18 -495 -82 -132 -61 -211 -153 -248 -292 -21
-77 -21 -2167 0 -2244 48 -178 171 -287 389 -343 88 -22 279 -40 428 -40 l99
0 0 -832 c1 -672 3 -848 15 -912 31 -175 135 -307 305 -389 104 -51 196 -77
358 -104 93 -16 165 -18 537 -16 244 1 460 7 500 13 39 6 91 13 116 16 l46 6
6 -128 c13 -267 67 -393 251 -583 106 -109 186 -168 288 -215 147 -68 133 -67
1028 -64 l805 3 70 24 c325 109 570 380 631 698 12 63 14 308 14 1498 l0 1422
173 6 c190 5 247 17 315 67 71 51 115 171 98 264 -14 74 -96 133 -218 157 -29
6 -124 10 -210 10 l-158 0 0 564 0 565 2095 0 2095 0 0 -565 0 -565 -1437 0
-1438 0 -50 -24 c-60 -28 -97 -66 -124 -126 -57 -126 10 -262 159 -323 l55
-22 1418 -3 1417 -2 0 -1431 c0 -1266 2 -1439 16 -1507 64 -311 315 -583 629
-682 87 -27 247 -36 785 -45 545 -9 853 10 1062 66 64 17 97 34 176 91 294
212 401 398 419 727 l6 123 46 -6 c25 -3 78 -10 116 -16 40 -6 256 -12 500
-13 373 -2 444 0 538 16 393 65 594 208 658 467 10 39 14 127 14 305 0 279 -8
328 -68 400 -40 49 -81 65 -164 65 -164 -1 -218 -72 -234 -308 -5 -75 -14
-175 -19 -222 -9 -82 -34 -175 -49 -184 -19 -12 -192 -28 -402 -37 -348 -15
-842 10 -875 44 -7 7 -22 39 -35 72 l-24 60 -3 3045 c-1 1938 1 3064 8 3097
12 66 47 150 66 157 58 22 233 31 629 31 397 0 549 -7 627 -31 24 -7 62 -133
78 -254 7 -52 13 -183 12 -290 0 -107 -4 -1135 -9 -2285 -4 -1149 -5 -2119 -1
-2153 16 -138 80 -194 234 -200 70 -3 98 -1 122 12 74 38 112 153 112 339 l0
107 99 0 c502 0 745 115 816 387 23 87 22 2150 0 2238 -47 178 -175 290 -395
346 -69 17 -125 22 -302 26 l-217 5 -3 872 -3 871 -28 80 c-94 274 -339 401
-841 437 -196 14 -823 -5 -926 -27 -36 -8 -68 -14 -71 -15 -3 0 -9 57 -12 128
-15 280 -68 403 -262 598 -157 159 -294 237 -465 264 -54 8 -291 10 -855 8
l-780 -3 -85 -29 c-162 -54 -265 -119 -385 -241 -97 -99 -173 -223 -218 -355
l-32 -95 -3 -1462 -2 -1463 -2095 0 -2095 0 0 1424 c0 1187 -2 1437 -14 1498
-66 346 -361 643 -706 713 -43 9 -228 17 -555 24 -269 6 -501 10 -515 9 -14 0
-109 -5 -212 -9z m667 -470 c270 -7 434 -16 480 -25 142 -28 265 -113 323
-222 67 -126 62 219 62 -4007 0 -4174 4 -3879 -54 -3994 -39 -75 -117 -154
-193 -193 -123 -64 -111 -63 -838 -63 -613 0 -664 1 -720 18 -87 27 -132 53
-192 110 -64 60 -115 157 -138 259 -14 66 -15 427 -13 3898 3 3581 4 3828 20
3873 90 253 293 350 743 356 61 1 295 -4 520 -10z m7285 0 c268 -7 429 -15
475 -25 142 -28 265 -113 323 -222 67 -126 62 219 62 -4007 0 -4174 4 -3879
-54 -3994 -39 -75 -117 -154 -193 -193 -123 -64 -111 -63 -838 -63 -613 0
-664 1 -720 18 -87 27 -132 53 -192 110 -64 60 -115 157 -138 259 -14 66 -15
427 -13 3898 l3 3825 23 59 c64 171 172 260 366 306 171 41 301 45 896 29z
m-10972 -3255 l52 -7 0 -998 0 -999 -190 0 c-218 0 -250 7 -269 60 -8 24 -11
291 -11 947 0 1011 -2 973 62 992 38 11 277 14 356 5z m14570 0 c17 -3 40 -15
51 -26 21 -19 21 -21 21 -976 0 -526 -4 -963 -8 -970 -16 -24 -79 -32 -264
-32 l-188 0 0 999 0 1000 38 4 c64 6 318 7 350 1z"/>
</g>
</svg>
